<svg xmlns="http://www.w3.org/2000/svg" viewBox="0 0 1530 213" width="1530" height="213" fill="none">
  <path d="M 1351 128 L 1350 129 L 1350 150 L 1351 151 L 1351 175 L 1350 176 L 1350 182 L 1361 182 L 1362 181 L 1362 161 L 1363 160 L 1378 160 L 1379 161 L 1379 182 L 1390 182 L 1390 128 L 1379 128 L 1379 149 L 1378 150 L 1362 150 L 1361 149 L 1362 148 L 1362 142 L 1361 141 L 1361 138 L 1362 137 L 1362 135 L 1361 134 L 1361 133 L 1362 132 L 1362 131 L 1361 130 L 1361 128 Z M 1319 128 L 1318 129 L 1316 129 L 1315 130 L 1314 130 L 1312 132 L 1311 132 L 1309 134 L 1309 135 L 1308 136 L 1308 137 L 1307 138 L 1307 139 L 1306 140 L 1306 143 L 1305 144 L 1305 168 L 1306 169 L 1306 171 L 1307 172 L 1307 173 L 1308 174 L 1308 175 L 1313 180 L 1315 180 L 1316 181 L 1317 181 L 1318 182 L 1320 182 L 1321 183 L 1330 183 L 1331 182 L 1333 182 L 1334 181 L 1335 181 L 1338 178 L 1339 178 L 1340 177 L 1340 176 L 1341 175 L 1341 174 L 1342 173 L 1342 172 L 1343 171 L 1343 168 L 1344 167 L 1344 166 L 1343 165 L 1333 165 L 1333 167 L 1332 168 L 1332 169 L 1329 172 L 1328 172 L 1327 173 L 1321 173 L 1320 172 L 1319 172 L 1318 171 L 1318 170 L 1316 168 L 1316 164 L 1315 163 L 1315 152 L 1316 151 L 1316 144 L 1317 143 L 1317 142 L 1321 138 L 1322 138 L 1323 137 L 1326 137 L 1327 138 L 1328 138 L 1332 142 L 1332 143 L 1333 144 L 1333 145 L 1343 145 L 1343 142 L 1342 141 L 1342 138 L 1340 136 L 1340 135 L 1335 130 L 1334 130 L 1333 129 L 1331 129 L 1330 128 Z M 1265 128 L 1264 129 L 1264 182 L 1299 182 L 1299 173 L 1276 173 L 1275 172 L 1275 161 L 1276 160 L 1291 160 L 1292 159 L 1295 159 L 1295 150 L 1276 150 L 1275 149 L 1275 139 L 1276 138 L 1299 138 L 1299 128 Z M 1220 128 L 1219 129 L 1219 137 L 1231 137 L 1233 139 L 1233 182 L 1244 182 L 1244 139 L 1245 138 L 1257 138 L 1257 128 Z M 547 69 L 546 70 L 542 70 L 541 71 L 538 71 L 537 72 L 536 72 L 534 74 L 533 74 L 532 75 L 531 75 L 525 81 L 524 80 L 524 79 L 523 78 L 523 71 L 520 71 L 519 70 L 507 70 L 506 71 L 501 71 L 501 73 L 502 74 L 502 76 L 501 77 L 501 190 L 525 190 L 525 112 L 526 111 L 526 107 L 527 106 L 527 104 L 528 103 L 528 102 L 529 101 L 529 100 L 531 98 L 531 97 L 533 95 L 534 95 L 536 93 L 537 93 L 538 92 L 539 92 L 540 91 L 544 91 L 545 90 L 551 90 L 552 91 L 555 91 L 556 92 L 557 92 L 558 93 L 559 93 L 560 94 L 561 94 L 565 98 L 567 98 L 572 93 L 572 92 L 577 87 L 577 86 L 582 81 L 582 79 L 577 74 L 576 74 L 575 73 L 574 73 L 573 72 L 572 72 L 571 71 L 568 71 L 567 70 L 565 70 L 564 69 Z M 429 69 L 428 70 L 425 70 L 424 71 L 422 71 L 421 72 L 419 72 L 418 73 L 416 73 L 414 75 L 413 75 L 412 76 L 411 76 L 406 81 L 405 81 L 402 84 L 402 85 L 400 87 L 400 88 L 398 90 L 398 91 L 396 93 L 396 94 L 395 95 L 395 97 L 394 98 L 394 99 L 393 100 L 393 101 L 392 102 L 392 105 L 391 106 L 391 109 L 390 110 L 390 114 L 389 115 L 389 146 L 390 147 L 390 151 L 391 152 L 391 154 L 392 155 L 392 157 L 393 158 L 393 160 L 394 161 L 394 162 L 395 163 L 395 165 L 397 167 L 397 168 L 398 169 L 398 170 L 401 173 L 401 174 L 409 182 L 410 182 L 412 184 L 413 184 L 414 185 L 415 185 L 416 186 L 417 186 L 418 187 L 419 187 L 420 188 L 422 188 L 423 189 L 425 189 L 426 190 L 429 190 L 430 191 L 435 191 L 436 192 L 449 192 L 450 191 L 455 191 L 456 190 L 459 190 L 460 189 L 462 189 L 463 188 L 464 188 L 465 187 L 467 187 L 468 186 L 469 186 L 471 184 L 472 184 L 473 183 L 474 183 L 475 182 L 476 182 L 478 180 L 479 180 L 482 177 L 483 177 L 483 176 L 485 174 L 486 174 L 486 172 L 482 168 L 481 168 L 480 167 L 480 166 L 479 166 L 471 158 L 470 158 L 463 165 L 462 165 L 461 166 L 460 166 L 459 167 L 458 167 L 457 168 L 456 168 L 455 169 L 453 169 L 452 170 L 449 170 L 448 171 L 439 171 L 438 170 L 433 170 L 432 169 L 430 169 L 429 168 L 428 168 L 427 167 L 426 167 L 424 165 L 423 165 L 420 162 L 420 161 L 417 158 L 417 157 L 416 156 L 416 155 L 415 154 L 415 152 L 414 151 L 414 149 L 413 148 L 413 145 L 412 144 L 412 138 L 413 137 L 446 137 L 447 136 L 448 137 L 455 137 L 456 136 L 457 137 L 470 137 L 471 136 L 472 137 L 473 137 L 474 136 L 475 137 L 485 137 L 486 136 L 488 136 L 488 135 L 489 134 L 489 119 L 488 118 L 488 112 L 487 111 L 487 108 L 486 107 L 486 103 L 485 102 L 485 100 L 484 99 L 484 98 L 483 97 L 483 96 L 482 95 L 482 94 L 481 93 L 481 92 L 479 90 L 479 89 L 477 87 L 477 86 L 470 79 L 469 79 L 465 75 L 464 75 L 463 74 L 462 74 L 461 73 L 460 73 L 459 72 L 458 72 L 457 71 L 454 71 L 453 70 L 448 70 L 447 69 Z M 431 90 L 432 89 L 445 89 L 446 90 L 449 90 L 450 91 L 451 91 L 454 94 L 455 94 L 459 98 L 459 99 L 461 101 L 461 102 L 462 103 L 462 105 L 463 106 L 463 108 L 464 109 L 464 115 L 465 116 L 465 118 L 464 119 L 413 119 L 412 118 L 412 112 L 413 111 L 413 109 L 414 108 L 414 106 L 415 105 L 415 104 L 416 103 L 416 102 L 417 101 L 417 100 L 424 93 L 425 93 L 427 91 L 428 91 L 429 90 Z M 221 69 L 220 70 L 214 70 L 213 71 L 210 71 L 209 72 L 207 72 L 206 73 L 205 73 L 204 74 L 203 74 L 202 75 L 201 75 L 200 76 L 199 76 L 195 80 L 194 80 L 191 83 L 191 84 L 189 86 L 189 88 L 191 90 L 192 90 L 201 99 L 202 99 L 204 101 L 205 101 L 205 100 L 211 94 L 212 94 L 214 92 L 215 92 L 216 91 L 217 91 L 218 90 L 223 90 L 224 89 L 236 89 L 237 90 L 241 90 L 242 91 L 243 91 L 244 92 L 245 92 L 246 93 L 247 93 L 249 95 L 250 95 L 252 97 L 252 98 L 253 99 L 253 101 L 254 102 L 254 103 L 255 104 L 255 108 L 256 109 L 256 118 L 255 119 L 218 119 L 217 120 L 212 120 L 211 121 L 208 121 L 207 122 L 205 122 L 204 123 L 203 123 L 202 124 L 201 124 L 200 125 L 199 125 L 198 126 L 197 126 L 189 134 L 189 135 L 187 137 L 187 138 L 186 139 L 186 141 L 185 142 L 185 143 L 184 144 L 184 148 L 183 149 L 183 161 L 184 162 L 184 165 L 185 166 L 185 168 L 186 169 L 186 170 L 187 171 L 187 172 L 188 173 L 188 174 L 189 175 L 189 176 L 197 184 L 198 184 L 200 186 L 201 186 L 202 187 L 203 187 L 204 188 L 205 188 L 206 189 L 208 189 L 209 190 L 211 190 L 212 191 L 217 191 L 218 192 L 230 192 L 231 191 L 236 191 L 237 190 L 240 190 L 241 189 L 243 189 L 244 188 L 245 188 L 247 186 L 248 186 L 250 184 L 251 184 L 253 182 L 254 182 L 255 181 L 256 182 L 256 190 L 279 190 L 279 106 L 278 105 L 278 98 L 277 97 L 277 95 L 276 94 L 276 93 L 275 92 L 275 90 L 272 87 L 272 86 L 270 84 L 270 83 L 267 80 L 266 80 L 264 78 L 263 78 L 260 75 L 259 75 L 258 74 L 257 74 L 256 73 L 255 73 L 254 72 L 252 72 L 251 71 L 248 71 L 247 70 L 240 70 L 239 69 Z M 232 137 L 233 136 L 234 137 L 235 137 L 236 136 L 244 136 L 245 137 L 246 137 L 247 136 L 248 137 L 249 137 L 250 136 L 251 137 L 255 137 L 256 138 L 256 155 L 255 156 L 255 158 L 254 159 L 254 160 L 251 163 L 251 164 L 250 165 L 249 165 L 246 168 L 245 168 L 244 169 L 243 169 L 242 170 L 240 170 L 239 171 L 233 171 L 232 172 L 228 172 L 227 171 L 221 171 L 220 170 L 218 170 L 217 169 L 216 169 L 215 168 L 214 168 L 209 163 L 209 162 L 208 161 L 208 159 L 207 158 L 207 149 L 208 148 L 208 147 L 209 146 L 209 145 L 215 139 L 216 139 L 217 138 L 219 138 L 220 137 Z M 1491 54 L 1491 93 L 1490 94 L 1490 108 L 1525 108 L 1525 100 L 1524 99 L 1502 99 L 1501 98 L 1501 66 L 1502 65 L 1502 64 L 1501 63 L 1502 62 L 1502 56 L 1501 55 L 1501 54 Z M 1449 54 L 1449 104 L 1450 105 L 1450 108 L 1483 108 L 1483 99 L 1461 99 L 1460 98 L 1460 54 Z M 1406 54 L 1406 86 L 1407 87 L 1407 108 L 1442 108 L 1442 99 L 1418 99 L 1417 98 L 1417 87 L 1418 86 L 1419 86 L 1420 85 L 1437 85 L 1437 77 L 1418 77 L 1417 76 L 1417 65 L 1418 64 L 1441 64 L 1441 54 Z M 1357 54 L 1356 55 L 1356 106 L 1357 107 L 1357 108 L 1367 108 L 1367 78 L 1368 77 L 1369 78 L 1369 79 L 1371 81 L 1371 82 L 1372 83 L 1372 84 L 1374 86 L 1374 87 L 1376 89 L 1376 90 L 1377 91 L 1377 92 L 1379 94 L 1379 95 L 1380 96 L 1380 97 L 1382 99 L 1382 100 L 1383 101 L 1383 102 L 1385 104 L 1385 105 L 1387 107 L 1387 108 L 1397 108 L 1397 54 L 1387 54 L 1386 55 L 1386 59 L 1387 60 L 1386 61 L 1386 62 L 1387 63 L 1387 84 L 1386 85 L 1383 82 L 1383 81 L 1382 80 L 1382 79 L 1380 77 L 1380 76 L 1378 74 L 1378 73 L 1377 72 L 1377 71 L 1375 69 L 1375 68 L 1373 66 L 1373 65 L 1372 64 L 1372 63 L 1370 61 L 1370 60 L 1369 59 L 1369 58 L 1367 56 L 1367 55 L 1366 54 Z M 1310 54 L 1310 108 L 1320 108 L 1320 88 L 1321 87 L 1327 87 L 1328 88 L 1328 89 L 1329 90 L 1329 91 L 1330 92 L 1330 93 L 1331 94 L 1331 95 L 1332 96 L 1332 97 L 1333 98 L 1333 99 L 1334 100 L 1334 101 L 1335 102 L 1335 103 L 1336 104 L 1336 106 L 1337 107 L 1337 108 L 1349 108 L 1349 106 L 1348 105 L 1348 104 L 1347 103 L 1347 102 L 1346 101 L 1346 100 L 1345 99 L 1345 98 L 1344 97 L 1344 96 L 1343 95 L 1343 94 L 1342 93 L 1342 92 L 1341 91 L 1341 90 L 1340 89 L 1340 88 L 1339 87 L 1339 86 L 1346 79 L 1346 78 L 1347 77 L 1347 74 L 1348 73 L 1348 68 L 1347 67 L 1347 64 L 1346 63 L 1346 62 L 1344 60 L 1344 59 L 1343 59 L 1341 57 L 1340 57 L 1339 56 L 1338 56 L 1337 55 L 1335 55 L 1334 54 Z M 1323 64 L 1324 63 L 1327 63 L 1328 64 L 1333 64 L 1334 65 L 1335 65 L 1336 66 L 1336 67 L 1337 68 L 1337 74 L 1334 77 L 1333 77 L 1332 78 L 1322 78 L 1320 76 L 1320 65 L 1321 64 Z M 1278 54 L 1277 55 L 1274 55 L 1273 56 L 1272 56 L 1271 57 L 1270 57 L 1269 58 L 1269 59 L 1266 62 L 1266 63 L 1265 64 L 1265 65 L 1264 66 L 1264 69 L 1263 70 L 1263 95 L 1264 96 L 1264 97 L 1265 98 L 1265 99 L 1268 102 L 1268 103 L 1270 105 L 1271 105 L 1273 107 L 1274 107 L 1275 108 L 1280 108 L 1281 109 L 1285 109 L 1286 108 L 1290 108 L 1291 107 L 1292 107 L 1293 106 L 1294 106 L 1299 101 L 1299 100 L 1300 99 L 1300 98 L 1301 97 L 1301 95 L 1302 94 L 1302 72 L 1301 71 L 1301 67 L 1300 66 L 1300 64 L 1298 62 L 1298 61 L 1294 57 L 1293 57 L 1292 56 L 1291 56 L 1290 55 L 1287 55 L 1286 54 Z M 1279 64 L 1285 64 L 1286 65 L 1287 65 L 1290 68 L 1290 69 L 1291 70 L 1291 74 L 1292 75 L 1292 84 L 1291 85 L 1291 94 L 1290 95 L 1290 96 L 1287 99 L 1285 99 L 1284 100 L 1283 99 L 1279 99 L 1275 95 L 1275 94 L 1274 93 L 1274 71 L 1275 70 L 1275 68 Z M 1234 54 L 1233 55 L 1231 55 L 1230 56 L 1229 56 L 1228 57 L 1227 57 L 1223 61 L 1223 62 L 1221 64 L 1221 65 L 1220 66 L 1220 69 L 1219 70 L 1219 94 L 1220 95 L 1220 97 L 1221 98 L 1221 99 L 1222 100 L 1222 101 L 1227 106 L 1228 106 L 1229 107 L 1230 107 L 1231 108 L 1235 108 L 1236 109 L 1240 109 L 1241 108 L 1246 108 L 1247 107 L 1248 107 L 1249 106 L 1250 106 L 1254 102 L 1254 101 L 1255 100 L 1255 99 L 1256 98 L 1256 97 L 1257 96 L 1257 92 L 1249 92 L 1248 91 L 1247 91 L 1247 93 L 1246 94 L 1246 95 L 1242 99 L 1241 99 L 1240 100 L 1236 100 L 1235 99 L 1234 99 L 1231 96 L 1231 94 L 1230 93 L 1230 89 L 1229 88 L 1229 74 L 1230 73 L 1230 69 L 1235 64 L 1241 64 L 1242 65 L 1244 65 L 1245 66 L 1245 67 L 1246 68 L 1246 69 L 1247 70 L 1247 71 L 1257 71 L 1257 67 L 1256 66 L 1256 65 L 1255 64 L 1255 63 L 1254 62 L 1254 61 L 1250 57 L 1249 57 L 1247 55 L 1244 55 L 1243 54 Z M 1121 44 L 1120 45 L 1113 45 L 1112 46 L 1109 46 L 1108 47 L 1105 47 L 1104 48 L 1102 48 L 1101 49 L 1100 49 L 1099 50 L 1098 50 L 1097 51 L 1096 51 L 1095 52 L 1094 52 L 1093 53 L 1092 53 L 1091 54 L 1090 54 L 1089 55 L 1088 55 L 1085 58 L 1084 58 L 1072 70 L 1072 71 L 1069 74 L 1069 75 L 1068 76 L 1068 77 L 1067 78 L 1067 79 L 1065 81 L 1065 82 L 1064 83 L 1064 84 L 1063 85 L 1063 86 L 1062 87 L 1062 89 L 1061 90 L 1061 92 L 1060 93 L 1060 95 L 1059 96 L 1059 100 L 1058 101 L 1058 107 L 1057 108 L 1057 125 L 1058 126 L 1058 130 L 1059 131 L 1059 136 L 1060 137 L 1060 139 L 1061 140 L 1061 143 L 1062 144 L 1062 145 L 1063 146 L 1063 148 L 1064 149 L 1064 150 L 1066 152 L 1066 153 L 1067 154 L 1067 155 L 1069 157 L 1069 158 L 1071 160 L 1071 161 L 1074 164 L 1074 165 L 1081 172 L 1082 172 L 1085 175 L 1086 175 L 1088 177 L 1089 177 L 1091 179 L 1092 179 L 1094 181 L 1095 181 L 1096 182 L 1098 182 L 1099 183 L 1100 183 L 1101 184 L 1103 184 L 1104 185 L 1106 185 L 1107 186 L 1110 186 L 1111 187 L 1117 187 L 1118 188 L 1131 188 L 1132 187 L 1133 187 L 1134 186 L 1134 185 L 1133 184 L 1133 180 L 1132 179 L 1116 179 L 1115 178 L 1112 178 L 1111 177 L 1109 177 L 1108 176 L 1106 176 L 1105 175 L 1104 175 L 1103 174 L 1102 174 L 1101 173 L 1099 173 L 1097 171 L 1096 171 L 1094 169 L 1093 169 L 1091 167 L 1090 167 L 1084 161 L 1084 160 L 1079 155 L 1079 154 L 1077 152 L 1077 151 L 1075 149 L 1075 148 L 1074 147 L 1074 146 L 1073 145 L 1073 144 L 1072 143 L 1072 142 L 1071 141 L 1071 139 L 1070 138 L 1070 136 L 1069 135 L 1069 132 L 1068 131 L 1068 126 L 1067 125 L 1067 108 L 1068 107 L 1068 102 L 1069 101 L 1069 97 L 1070 96 L 1070 94 L 1071 93 L 1071 92 L 1072 91 L 1072 90 L 1073 89 L 1073 87 L 1074 86 L 1074 85 L 1075 84 L 1075 83 L 1077 81 L 1077 80 L 1079 78 L 1079 77 L 1091 65 L 1092 65 L 1094 63 L 1095 63 L 1097 61 L 1098 61 L 1099 60 L 1100 60 L 1102 58 L 1103 58 L 1104 57 L 1105 57 L 1106 56 L 1108 56 L 1109 55 L 1112 55 L 1113 54 L 1116 54 L 1117 53 L 1133 53 L 1134 54 L 1139 54 L 1140 55 L 1143 55 L 1144 56 L 1145 56 L 1146 57 L 1147 57 L 1148 58 L 1149 58 L 1150 59 L 1151 59 L 1152 60 L 1153 60 L 1155 62 L 1156 62 L 1159 65 L 1160 65 L 1166 71 L 1166 72 L 1169 75 L 1169 76 L 1170 77 L 1170 78 L 1172 80 L 1172 81 L 1173 82 L 1173 84 L 1174 85 L 1174 87 L 1175 88 L 1175 92 L 1176 93 L 1176 106 L 1175 107 L 1175 111 L 1174 112 L 1174 114 L 1173 115 L 1173 118 L 1172 119 L 1172 120 L 1170 122 L 1170 123 L 1169 124 L 1169 125 L 1166 128 L 1166 129 L 1158 137 L 1157 137 L 1156 138 L 1155 138 L 1154 139 L 1153 139 L 1152 140 L 1151 140 L 1150 141 L 1148 141 L 1147 142 L 1142 142 L 1141 141 L 1142 140 L 1142 134 L 1143 133 L 1143 128 L 1144 127 L 1144 124 L 1145 123 L 1145 119 L 1146 118 L 1146 115 L 1147 114 L 1147 109 L 1148 108 L 1148 103 L 1149 102 L 1149 99 L 1150 98 L 1150 93 L 1151 92 L 1151 87 L 1152 86 L 1152 82 L 1153 81 L 1153 79 L 1142 79 L 1142 84 L 1141 85 L 1138 82 L 1137 82 L 1134 79 L 1133 79 L 1132 78 L 1131 78 L 1130 77 L 1117 77 L 1116 78 L 1114 78 L 1113 79 L 1112 79 L 1111 80 L 1110 80 L 1109 81 L 1108 81 L 1100 89 L 1100 90 L 1098 92 L 1098 93 L 1096 95 L 1096 97 L 1095 98 L 1095 99 L 1094 100 L 1094 102 L 1093 103 L 1093 105 L 1092 106 L 1092 109 L 1091 110 L 1091 115 L 1090 116 L 1090 132 L 1091 133 L 1091 136 L 1092 137 L 1092 139 L 1093 140 L 1093 142 L 1095 144 L 1095 145 L 1097 147 L 1098 147 L 1100 149 L 1101 149 L 1102 150 L 1104 150 L 1105 151 L 1121 151 L 1122 150 L 1123 150 L 1124 149 L 1125 149 L 1126 148 L 1127 148 L 1130 145 L 1131 146 L 1131 149 L 1132 150 L 1133 150 L 1134 151 L 1145 151 L 1146 150 L 1152 150 L 1153 149 L 1155 149 L 1156 148 L 1157 148 L 1158 147 L 1159 147 L 1160 146 L 1161 146 L 1162 145 L 1163 145 L 1165 143 L 1166 143 L 1176 133 L 1176 132 L 1178 130 L 1178 129 L 1180 127 L 1180 126 L 1181 125 L 1181 124 L 1182 123 L 1182 121 L 1183 120 L 1183 118 L 1184 117 L 1184 114 L 1185 113 L 1185 110 L 1186 109 L 1186 95 L 1185 94 L 1185 90 L 1184 89 L 1184 86 L 1183 85 L 1183 83 L 1182 82 L 1182 79 L 1181 78 L 1181 77 L 1180 76 L 1180 75 L 1179 74 L 1179 73 L 1178 72 L 1178 71 L 1176 69 L 1176 68 L 1172 64 L 1172 63 L 1171 63 L 1165 57 L 1164 57 L 1161 54 L 1160 54 L 1159 53 L 1158 53 L 1156 51 L 1155 51 L 1154 50 L 1153 50 L 1152 49 L 1150 49 L 1149 48 L 1148 48 L 1147 47 L 1144 47 L 1143 46 L 1140 46 L 1139 45 L 1131 45 L 1130 44 Z M 1119 87 L 1120 86 L 1127 86 L 1128 87 L 1129 87 L 1130 88 L 1131 88 L 1135 92 L 1135 93 L 1136 94 L 1136 95 L 1137 96 L 1137 98 L 1138 99 L 1138 107 L 1137 108 L 1137 113 L 1136 114 L 1136 118 L 1135 119 L 1135 121 L 1134 122 L 1134 125 L 1133 126 L 1133 128 L 1132 129 L 1132 130 L 1131 131 L 1131 132 L 1130 133 L 1130 134 L 1124 140 L 1123 140 L 1122 141 L 1121 141 L 1120 142 L 1118 142 L 1117 143 L 1111 143 L 1110 142 L 1107 142 L 1105 140 L 1104 140 L 1102 138 L 1102 137 L 1101 136 L 1101 135 L 1100 134 L 1100 131 L 1099 130 L 1099 123 L 1100 122 L 1100 116 L 1101 115 L 1101 112 L 1102 111 L 1102 107 L 1103 106 L 1103 104 L 1104 103 L 1104 102 L 1105 101 L 1105 99 L 1106 98 L 1106 97 L 1110 93 L 1110 92 L 1112 90 L 1113 90 L 1115 88 L 1116 88 L 1117 87 Z M 916 24 L 916 192 L 996 192 L 997 191 L 1002 191 L 1003 190 L 1006 190 L 1007 189 L 1009 189 L 1010 188 L 1012 188 L 1013 187 L 1014 187 L 1015 186 L 1016 186 L 1018 184 L 1019 184 L 1020 183 L 1021 183 L 1030 174 L 1030 173 L 1032 171 L 1032 170 L 1033 169 L 1033 168 L 1034 167 L 1034 166 L 1035 165 L 1035 163 L 1036 162 L 1036 159 L 1037 158 L 1037 155 L 1038 154 L 1038 147 L 1039 146 L 1039 142 L 1038 141 L 1038 134 L 1037 133 L 1037 130 L 1036 129 L 1036 127 L 1035 126 L 1035 124 L 1034 123 L 1034 122 L 1033 121 L 1033 120 L 1032 119 L 1032 118 L 1030 116 L 1030 115 L 1026 111 L 1025 111 L 1023 109 L 1023 108 L 1022 108 L 1021 107 L 1020 107 L 1019 106 L 1019 105 L 1022 102 L 1023 102 L 1028 97 L 1028 96 L 1030 94 L 1030 93 L 1031 92 L 1031 91 L 1032 90 L 1032 89 L 1033 88 L 1033 87 L 1034 86 L 1034 84 L 1035 83 L 1035 79 L 1036 78 L 1036 64 L 1035 63 L 1035 59 L 1034 58 L 1034 55 L 1033 54 L 1033 53 L 1032 52 L 1032 50 L 1031 49 L 1031 48 L 1030 47 L 1030 46 L 1029 45 L 1029 44 L 1027 42 L 1027 41 L 1019 33 L 1018 33 L 1016 31 L 1015 31 L 1014 30 L 1013 30 L 1012 29 L 1011 29 L 1010 28 L 1009 28 L 1008 27 L 1006 27 L 1005 26 L 1001 26 L 1000 25 L 996 25 L 995 24 Z M 958 125 L 959 124 L 982 124 L 983 125 L 989 125 L 990 126 L 991 126 L 992 127 L 993 127 L 994 128 L 994 129 L 996 131 L 996 132 L 997 133 L 997 134 L 998 135 L 998 145 L 997 146 L 997 148 L 992 153 L 991 153 L 990 154 L 989 154 L 988 155 L 956 155 L 955 154 L 955 126 L 956 125 Z M 957 60 L 983 60 L 984 61 L 988 61 L 989 62 L 990 62 L 995 67 L 995 69 L 996 70 L 996 80 L 995 81 L 995 82 L 992 85 L 991 85 L 989 87 L 988 87 L 987 88 L 983 88 L 982 89 L 957 89 L 955 87 L 955 62 Z M 788 24 L 788 25 L 787 26 L 787 28 L 786 29 L 786 31 L 785 32 L 785 34 L 784 35 L 784 37 L 783 38 L 783 40 L 782 41 L 782 43 L 781 44 L 781 46 L 780 47 L 780 48 L 779 49 L 779 51 L 778 52 L 778 54 L 777 55 L 777 57 L 776 58 L 776 60 L 775 61 L 775 63 L 774 64 L 774 66 L 773 67 L 773 69 L 772 70 L 772 72 L 771 73 L 771 75 L 770 76 L 770 78 L 769 79 L 769 81 L 768 82 L 768 84 L 767 85 L 767 87 L 766 88 L 766 89 L 765 90 L 765 92 L 764 93 L 764 95 L 763 96 L 763 97 L 762 98 L 762 100 L 761 101 L 761 103 L 760 104 L 760 106 L 759 107 L 759 109 L 758 110 L 758 112 L 757 113 L 757 115 L 756 116 L 756 117 L 755 118 L 755 120 L 754 121 L 754 124 L 753 125 L 753 126 L 752 127 L 752 129 L 751 130 L 751 132 L 750 133 L 750 135 L 749 136 L 749 138 L 748 139 L 748 141 L 747 142 L 747 143 L 746 144 L 746 146 L 745 147 L 745 149 L 744 150 L 744 152 L 743 153 L 743 154 L 742 155 L 742 157 L 741 158 L 741 161 L 740 162 L 740 164 L 739 165 L 739 167 L 738 168 L 738 170 L 737 171 L 737 173 L 736 174 L 736 176 L 735 177 L 735 179 L 734 180 L 734 182 L 733 183 L 733 184 L 732 185 L 732 187 L 731 188 L 731 189 L 730 190 L 730 192 L 771 192 L 771 191 L 772 190 L 772 188 L 773 187 L 773 184 L 774 183 L 774 181 L 775 180 L 775 178 L 776 177 L 776 175 L 777 174 L 777 172 L 778 171 L 778 169 L 779 168 L 779 167 L 780 166 L 829 166 L 830 167 L 830 168 L 831 169 L 831 171 L 832 172 L 832 174 L 833 175 L 833 177 L 834 178 L 834 180 L 835 181 L 835 183 L 836 184 L 836 187 L 837 188 L 837 190 L 838 191 L 838 192 L 880 192 L 880 191 L 879 190 L 879 189 L 878 188 L 878 186 L 877 185 L 877 184 L 876 183 L 876 181 L 875 180 L 875 178 L 874 177 L 874 175 L 873 174 L 873 173 L 872 172 L 872 170 L 871 169 L 871 167 L 870 166 L 870 164 L 869 163 L 869 161 L 868 160 L 868 158 L 867 157 L 867 155 L 866 154 L 866 152 L 865 151 L 865 150 L 864 149 L 864 147 L 863 146 L 863 144 L 862 143 L 862 141 L 861 140 L 861 139 L 860 138 L 860 135 L 859 134 L 859 132 L 858 131 L 858 130 L 857 129 L 857 127 L 856 126 L 856 125 L 855 124 L 855 121 L 854 120 L 854 118 L 853 117 L 853 115 L 852 114 L 852 112 L 851 111 L 851 110 L 850 109 L 850 106 L 849 105 L 849 104 L 848 103 L 848 101 L 847 100 L 847 98 L 846 97 L 846 96 L 845 95 L 845 93 L 844 92 L 844 90 L 843 89 L 843 87 L 842 86 L 842 85 L 841 84 L 841 82 L 840 81 L 840 79 L 839 78 L 839 76 L 838 75 L 838 73 L 837 72 L 837 70 L 836 69 L 836 67 L 835 66 L 835 64 L 834 63 L 834 61 L 833 60 L 833 58 L 832 57 L 832 55 L 831 54 L 831 53 L 830 52 L 830 50 L 829 49 L 829 47 L 828 46 L 828 44 L 827 43 L 827 41 L 826 40 L 826 38 L 825 37 L 825 36 L 824 35 L 824 33 L 823 32 L 823 30 L 822 29 L 822 27 L 821 26 L 821 25 L 820 24 Z M 804 88 L 805 87 L 806 88 L 806 91 L 807 92 L 807 95 L 808 96 L 808 98 L 809 99 L 809 101 L 810 102 L 810 104 L 811 105 L 811 107 L 812 108 L 812 110 L 813 111 L 813 114 L 814 115 L 814 117 L 815 118 L 815 120 L 816 121 L 816 123 L 817 124 L 817 127 L 819 129 L 819 131 L 818 132 L 791 132 L 790 131 L 790 129 L 791 128 L 791 127 L 792 126 L 792 124 L 793 123 L 793 121 L 794 120 L 794 118 L 795 117 L 795 115 L 796 114 L 796 111 L 797 110 L 797 108 L 798 107 L 798 106 L 799 105 L 799 103 L 800 102 L 800 100 L 801 99 L 801 97 L 802 96 L 802 94 L 803 93 L 803 91 L 804 90 Z M 595 24 L 595 192 L 703 192 L 703 155 L 636 155 L 635 154 L 635 57 L 634 56 L 635 55 L 635 41 L 634 40 L 635 39 L 635 25 L 634 24 Z M 25 23 L 25 190 L 51 190 L 51 84 L 52 83 L 53 84 L 53 85 L 54 86 L 54 87 L 55 88 L 55 89 L 56 90 L 56 91 L 57 92 L 57 93 L 58 94 L 58 95 L 59 96 L 59 97 L 60 98 L 60 100 L 61 101 L 61 102 L 62 103 L 62 104 L 63 105 L 63 106 L 64 107 L 64 108 L 65 109 L 65 111 L 66 112 L 66 113 L 67 114 L 67 115 L 68 116 L 68 117 L 69 118 L 69 119 L 70 120 L 70 121 L 71 122 L 71 123 L 72 124 L 72 125 L 73 126 L 73 127 L 74 128 L 74 129 L 75 130 L 75 131 L 76 132 L 76 134 L 78 136 L 78 138 L 79 139 L 79 140 L 80 141 L 80 142 L 81 143 L 81 144 L 82 145 L 82 146 L 83 147 L 83 148 L 84 149 L 84 150 L 85 151 L 85 152 L 86 153 L 86 154 L 87 155 L 87 156 L 88 157 L 88 158 L 89 159 L 89 160 L 90 161 L 109 161 L 109 160 L 110 159 L 110 158 L 111 157 L 111 155 L 112 154 L 112 153 L 113 152 L 113 151 L 114 150 L 114 149 L 115 148 L 115 147 L 116 146 L 116 144 L 117 143 L 117 142 L 118 141 L 118 140 L 119 139 L 119 137 L 120 136 L 120 135 L 121 134 L 121 133 L 122 132 L 122 131 L 123 130 L 123 129 L 124 128 L 124 126 L 125 125 L 125 124 L 126 123 L 126 122 L 127 121 L 127 120 L 128 119 L 128 118 L 129 117 L 129 115 L 130 114 L 130 113 L 131 112 L 131 111 L 132 110 L 132 109 L 133 108 L 133 106 L 134 105 L 134 104 L 135 103 L 135 101 L 136 100 L 136 99 L 137 98 L 137 97 L 138 96 L 138 95 L 139 94 L 139 93 L 140 92 L 140 91 L 141 90 L 141 89 L 142 88 L 142 87 L 143 86 L 143 85 L 144 84 L 145 85 L 145 190 L 170 190 L 170 23 L 144 23 L 144 24 L 143 25 L 143 27 L 142 28 L 142 29 L 141 30 L 141 31 L 140 32 L 140 33 L 139 34 L 139 36 L 138 37 L 138 38 L 137 39 L 137 40 L 136 41 L 136 42 L 135 43 L 135 45 L 134 46 L 134 48 L 133 49 L 133 50 L 132 51 L 132 52 L 131 53 L 131 54 L 130 55 L 130 56 L 129 57 L 129 59 L 128 60 L 128 61 L 127 62 L 127 64 L 126 65 L 126 66 L 125 67 L 125 68 L 124 69 L 124 70 L 123 71 L 123 72 L 122 73 L 122 74 L 121 75 L 121 77 L 120 78 L 120 79 L 119 80 L 119 81 L 118 82 L 118 84 L 117 85 L 117 86 L 116 87 L 116 88 L 115 89 L 115 91 L 114 92 L 114 93 L 113 94 L 113 95 L 112 96 L 112 98 L 111 99 L 111 100 L 110 101 L 110 102 L 109 103 L 109 104 L 108 105 L 108 106 L 107 107 L 107 109 L 106 110 L 106 111 L 105 112 L 105 113 L 104 114 L 104 115 L 103 116 L 103 117 L 102 118 L 102 119 L 101 120 L 101 122 L 100 123 L 100 124 L 99 125 L 98 124 L 98 123 L 97 122 L 97 121 L 96 120 L 96 119 L 95 118 L 95 117 L 94 116 L 94 115 L 93 114 L 93 113 L 92 112 L 92 111 L 91 110 L 91 109 L 90 108 L 90 107 L 89 106 L 89 105 L 88 104 L 88 102 L 87 101 L 87 100 L 86 99 L 86 98 L 85 97 L 85 96 L 84 95 L 84 94 L 83 93 L 83 92 L 82 91 L 82 89 L 81 88 L 81 87 L 80 86 L 80 85 L 79 84 L 79 83 L 78 82 L 78 81 L 77 80 L 77 79 L 76 78 L 76 77 L 75 76 L 75 75 L 74 74 L 74 73 L 73 72 L 73 70 L 72 69 L 72 68 L 71 67 L 71 66 L 70 65 L 70 64 L 69 63 L 69 62 L 68 61 L 68 60 L 67 59 L 67 57 L 66 56 L 66 55 L 65 54 L 65 53 L 64 52 L 64 51 L 63 50 L 63 49 L 62 48 L 62 47 L 61 46 L 61 44 L 60 43 L 60 42 L 59 41 L 59 40 L 58 39 L 58 38 L 57 37 L 57 36 L 56 35 L 56 34 L 55 33 L 55 32 L 54 31 L 54 30 L 53 29 L 53 27 L 52 26 L 52 25 L 51 24 L 51 23 Z M 296 22 L 296 190 L 320 190 L 320 154 L 322 152 L 322 151 L 329 144 L 329 143 L 336 136 L 337 136 L 338 137 L 338 138 L 339 139 L 339 140 L 340 141 L 340 142 L 342 144 L 342 145 L 343 146 L 343 147 L 344 148 L 344 149 L 347 152 L 347 153 L 349 155 L 349 156 L 350 157 L 350 158 L 351 159 L 351 160 L 352 161 L 352 162 L 354 164 L 354 165 L 356 167 L 356 168 L 357 169 L 357 170 L 358 171 L 358 172 L 360 174 L 360 175 L 361 176 L 361 177 L 363 179 L 363 180 L 364 181 L 364 182 L 366 184 L 366 185 L 368 187 L 368 188 L 369 189 L 369 190 L 397 190 L 397 188 L 396 187 L 396 186 L 394 184 L 394 183 L 392 181 L 392 180 L 391 179 L 391 178 L 389 176 L 389 175 L 388 174 L 388 173 L 386 171 L 386 170 L 385 169 L 385 168 L 383 166 L 383 165 L 381 163 L 381 162 L 380 161 L 380 160 L 378 158 L 378 157 L 377 156 L 377 155 L 376 154 L 376 153 L 374 151 L 374 150 L 372 148 L 372 147 L 370 145 L 370 144 L 368 142 L 368 141 L 367 140 L 367 139 L 366 138 L 366 137 L 363 134 L 363 133 L 361 131 L 361 130 L 359 128 L 359 127 L 357 125 L 357 124 L 356 123 L 356 122 L 355 121 L 355 120 L 354 119 L 354 118 L 353 117 L 353 116 L 360 109 L 360 108 L 366 102 L 366 101 L 372 95 L 372 94 L 376 90 L 376 89 L 377 88 L 378 88 L 378 87 L 384 81 L 384 80 L 385 79 L 386 79 L 386 78 L 387 77 L 388 77 L 389 76 L 389 75 L 391 73 L 391 71 L 363 71 L 359 75 L 359 76 L 357 78 L 357 79 L 354 82 L 354 83 L 349 88 L 349 89 L 344 94 L 344 95 L 339 100 L 339 101 L 334 106 L 334 107 L 329 112 L 329 113 L 325 117 L 325 118 L 321 122 L 320 121 L 320 22 Z" fill="#000" fill-rule="evenodd" clip-rule="evenodd"/>
</svg>
